<?xml version="1.0" encoding="UTF-8"?>
<svg width="24px" height="24px" viewBox="0 0 24 24" version="1.1" xmlns="http://www.w3.org/2000/svg" xmlns:xlink="http://www.w3.org/1999/xlink">
    <!-- Generator: Sketch 59 (86127) - https://sketch.com -->
    <title>Icon / Poison / Fill</title>
    <desc>Created with Sketch.</desc>
    <g id="Icon-/-Poison-/-Fill" stroke="none" stroke-width="1" fill="none" fill-rule="evenodd">
        <path d="M9.13678922,19.6868652 L8.03279686,19.6868652 C7.7538721,19.6868652 7.52019061,19.8888368 7.4717049,20.1533233 L7.46247716,20.2551638 L7.46247716,21.4317015 C7.46247716,21.7106521 7.66516701,21.9427165 7.9305942,21.9908425 L8.03279686,22 L15.966883,22 C16.2458078,22 16.4794893,21.7989301 16.527975,21.5338425 L16.5372027,21.4317015 L16.5372027,20.2551638 C16.5372027,19.9772275 16.3345129,19.7443741 16.0690857,19.6960603 L15.966883,19.6868652 L14.8628907,19.6868652 L14.8628907,20.6716878 C14.8628907,20.8933584 14.7059418,21.0774599 14.4971516,21.1200217 L14.4048026,21.1292936 L13.6042936,21.1292936 C13.3818345,21.1292936 13.1970783,20.972901 13.1543652,20.7640862 L13.1450602,20.6716878 L13.1450602,19.6868652 L10.8546197,19.6868652 L10.8546197,20.6716878 C10.8546197,20.8933584 10.6976708,21.0774599 10.4888806,21.1200217 L10.3965315,21.1292936 L9.59602256,21.1292936 C9.37356352,21.1292936 9.18880728,20.972901 9.14609414,20.7640862 L9.13678922,20.6716878 L9.13678922,19.6868652 Z M11.99984,2 C7.18418863,2 3.26639002,5.37555632 3.26639002,9.52482027 C3.26639002,10.3875385 3.43210697,11.2222983 3.75817042,12.0138098 L3.90771338,12.3503366 L4.09209385,12.7349081 L3.83441928,13.0772566 C3.09918785,14.0540911 2.93313091,15.1792765 3.44962526,15.6939404 C3.92718212,16.1698049 4.92123334,16.0739473 5.8671853,15.4600023 C5.98018036,15.3915326 6.07841482,15.320527 6.17206839,15.2490142 L6.31038555,15.1416182 L7.45560584,14.2458062 L7.46820326,17.6978204 C7.46820326,17.9574981 7.65641527,18.1738961 7.90414731,18.2187787 L7.99958548,18.2273194 L9.13678922,18.2273194 L9.13678922,17.0211115 C9.13678922,16.7994408 9.29373809,16.6162131 9.50329551,16.5738697 L9.59602256,16.5646468 L10.3965315,16.5646468 C10.6179885,16.5646468 10.8026195,16.7201658 10.845317,16.9287621 L10.8546197,17.0211115 L10.8546197,18.2273194 L13.1450602,18.2273194 L13.1450602,17.0211115 C13.1450602,16.7994408 13.3020091,16.6162131 13.5115665,16.5738697 L13.6042936,16.5646468 L14.4048026,16.5646468 C14.6262595,16.5646468 14.8108905,16.7201658 14.853588,16.9287621 L14.8628907,17.0211115 L14.8628907,18.2273194 L16.0000944,18.2273194 C16.2606957,18.2273194 16.4778634,18.0397744 16.5229056,17.7929203 L16.5314766,17.6978204 L16.5314766,14.2378181 L17.6766969,15.1313477 C17.8267208,15.2488874 17.963002,15.3572977 18.1107354,15.4451672 C19.0784466,16.0728061 20.0713526,16.1686637 20.5500546,15.6939404 C21.036167,15.2095509 20.9186808,14.1843533 20.2892549,13.2510247 L20.1652606,13.0772566 L19.9075861,12.7349081 L20.0931117,12.3503366 C20.5179885,11.4602305 20.7332899,10.510784 20.7332899,9.52482027 C20.7332899,5.37555632 16.8154913,2 11.99984,2 Z M12.3366859,13.7427936 L12.3970023,13.8250599 L12.9260941,14.7391304 C13.0867113,15.0173837 12.9153338,15.3598828 12.6139653,15.4150336 L12.5287027,15.4226863 L11.4705191,15.4226863 C11.1482351,15.4226863 10.9356535,15.103375 11.0383065,14.8163464 L11.0742729,14.7391304 L11.6033647,13.8250599 C11.7620922,13.5508388 12.1351019,13.5234166 12.3366859,13.7427936 Z M18.4016214,7.96793336 C19.3223785,8.88542737 19.0715752,10.5720644 17.8313017,11.8079425 C17.0937798,12.5428506 16.1970723,12.9285633 15.3977086,12.9285633 C14.9187202,12.9285633 14.4765578,12.7905184 14.1226243,12.5067837 L13.9764902,12.376241 L13.8630268,12.2521638 C13.0795099,11.3117939 13.3616065,9.71723501 14.5479551,8.53509072 C15.1022417,7.98276846 15.7802121,7.60390277 16.4547469,7.46924569 C17.219754,7.31861235 17.9309358,7.49777473 18.4016214,7.96793336 Z M5.59874566,7.96804747 C6.0694312,7.49788885 6.78175822,7.31872646 7.54562015,7.46935981 C8.2201549,7.60401689 8.89812532,7.98288257 9.45241194,8.53520484 C10.6926855,9.77108296 10.944634,11.45772 10.0238769,12.3763551 L9.87802456,12.5068978 C9.52443556,12.7906325 9.0806448,12.9286774 8.60265848,12.9286774 C7.80329472,12.9286774 6.90544201,12.5429647 6.16906536,11.8080566 C4.92879179,10.5721785 4.67798855,8.88554148 5.59874566,7.96804747 Z" id="Shape" fill="#000000" fill-rule="nonzero"></path>
    </g>
</svg>