<?xml version="1.0" encoding="UTF-8"?>
<svg width="24px" height="24px" viewBox="0 0 24 24" version="1.1" xmlns="http://www.w3.org/2000/svg" xmlns:xlink="http://www.w3.org/1999/xlink">
    <!-- Generator: Sketch 59 (86127) - https://sketch.com -->
    <title>Icon / Poison / Stroke</title>
    <desc>Created with Sketch.</desc>
    <g id="Icon-/-Poison-/-Stroke" stroke="none" stroke-width="1">
        <path d="M11.9998103,2 C16.9041911,2 20.8933284,5.513 20.8933284,9.831 C20.8933284,10.758 20.7156989,11.656 20.3604398,12.506 C21.2024238,13.82 21.2204878,15.265 20.3704754,16.112 C19.6691009,16.8118333 18.540741,16.922071 17.4114859,16.4477675 L17.212283,16.358 L17.212283,16.993 C17.212283,17.42 17.0466962,17.805 16.786775,18.104 C17.0177185,18.370875 17.1733638,18.7035938 17.2086666,19.0733496 L17.2162972,19.234 L17.2162972,20.265 C17.2162972,21.1716316 16.5155534,21.9176094 15.6260421,21.993622 L15.4761302,22 L8.52349046,22 C7.61458514,22 6.86600424,21.3017396 6.789724,20.4145304 L6.78332341,20.265 L6.78332341,19.234 C6.78332341,18.8 6.94891024,18.409 7.21384917,18.104 C6.98554006,17.842375 6.83099235,17.5149063 6.79592275,17.1510703 L6.7883412,16.993 L6.7883412,16.36 C5.60314092,16.934 4.37579127,16.856 3.62914521,16.112 C2.78013637,15.265 2.79719684,13.82 3.63918077,12.506 C3.28492531,11.656 3.10629225,10.758 3.10629225,9.831 C3.10629225,5.513 7.0954295,2 11.9998103,2 Z M9.49091896,18.736 L8.52349046,18.736 C8.27906868,18.736 8.07429359,18.9129877 8.03180557,19.1447572 L8.0237193,19.234 L8.0237193,20.265 C8.0237193,20.5094444 8.20133642,20.7128025 8.43393026,20.7549753 L8.52349046,20.763 L15.4761302,20.763 C15.7205519,20.763 15.925327,20.5868025 15.9678151,20.3545062 L15.9759013,20.265 L15.9759013,19.234 C15.9759013,18.9904444 15.7982842,18.7863951 15.5656904,18.7440576 L15.4761302,18.736 L14.5087017,18.736 L14.5087017,19.599 C14.5087017,19.79325 14.3711674,19.9545781 14.1882045,19.991875 L14.107279,20 L13.405793,20 C13.2108522,20 13.0489503,19.8629531 13.0115207,19.6799688 L13.0033669,19.599 L13.0033669,18.736 L10.9962538,18.736 L10.9962538,19.599 C10.9962538,19.79325 10.8587195,19.9545781 10.6757566,19.991875 L10.5948312,20 L9.89334513,20 C9.69840427,20 9.53650238,19.8629531 9.49907286,19.6799688 L9.49091896,19.599 L9.49091896,18.736 Z M11.9998103,3.237 C7.77985506,3.237 4.34668813,6.195 4.34668813,9.831 C4.34668813,10.587 4.4919059,11.3185 4.77763531,12.0121016 L4.9086798,12.307 L5.0702524,12.644 L4.84445218,12.944 C4.20016888,13.8 4.05465318,14.786 4.50725718,15.237 C4.92574026,15.654 5.79682734,15.57 6.62576504,15.032 C6.72478262,14.972 6.81086547,14.9097778 6.89293409,14.8471111 L7.01414142,14.753 L8.01769796,13.968 L8.02873708,16.993 C8.02873708,17.2205556 8.19366726,17.4101852 8.41075485,17.4495158 L8.49438732,17.457 L9.49091896,17.457 L9.49091896,16.4 C9.49091896,16.20575 9.62845325,16.0451875 9.81208841,16.008082 L9.89334513,16 L10.5948312,16 C10.7888939,16 10.950686,16.1362812 10.9881018,16.3190742 L10.9962538,16.4 L10.9962538,17.457 L13.0033669,17.457 L13.0033669,16.4 C13.0033669,16.20575 13.1409011,16.0451875 13.3245363,16.008082 L13.405793,16 L14.107279,16 C14.3013418,16 14.4631339,16.1362812 14.5005497,16.3190742 L14.5087017,16.4 L14.5087017,17.457 L15.5052333,17.457 C15.7335982,17.457 15.9239022,17.2926543 15.9633727,17.0763361 L15.9708835,16.993 L15.9708835,13.961 L16.9744401,14.744 C17.105906,14.847 17.2253292,14.942 17.354788,15.019 C18.2027933,15.569 19.0728768,15.653 19.4923634,15.237 C19.9183437,14.8125294 19.8153906,13.9141488 19.2638246,13.0962729 L19.1551684,12.944 L18.9293682,12.644 L19.0919444,12.307 C19.4642639,11.527 19.6529325,10.695 19.6529325,9.831 C19.6529325,6.195 16.2197656,3.237 11.9998103,3.237 Z M12.2949884,13.52721 L12.3478437,13.5993 L12.8114868,14.4003 C12.9522356,14.6441333 12.8020576,14.9442653 12.5379683,14.992594 L12.4632527,14.9993 L11.5359665,14.9993 C11.2535489,14.9993 11.0672638,14.7194875 11.1572185,14.4679644 L11.1887359,14.4003 L11.652379,13.5993 C11.791472,13.359 12.1183404,13.33497 12.2949884,13.52721 Z M17.6096914,8.4667 C18.4165508,9.2707 18.1967719,10.7487 17.1099202,11.8317 C16.4636298,12.4757 15.677845,12.8137 14.9773626,12.8137 C14.557625,12.8137 14.1701581,12.6927313 13.8600062,12.4440945 L13.7319489,12.3297 L13.6325209,12.2209711 C12.9459251,11.396925 13.1931263,9.99961304 14.2327236,8.9637 C14.718445,8.4797 15.3125505,8.1477 15.9036453,8.0297 C16.574021,7.8977 17.1972296,8.0547 17.6096914,8.4667 Z M6.39053138,8.4668 C6.80299312,8.0548 7.42720529,7.8978 8.0965775,8.0298 C8.68767231,8.1478 9.28177778,8.4798 9.76749914,8.9638 C10.8543509,10.0468 11.0751333,11.5248 10.2682739,12.3298 L10.1404635,12.4441945 C9.83061344,12.6928313 9.4417196,12.8138 9.02286019,12.8138 C8.32237772,12.8138 7.5355894,12.4758 6.89030254,11.8318 C5.80345081,10.7488 5.58367193,9.2708 6.39053138,8.4668 Z M16.1465059,9.2437 C15.7982718,9.3127 15.419931,9.5297 15.1108356,9.8387 C14.5026803,10.4437 14.3451219,11.1907 14.6100609,11.4547 C14.8739962,11.7187 15.6246565,11.5627 16.2318082,10.9567 C16.8379564,10.3527 16.9965183,9.6047 16.7315794,9.3407 C16.5700068,9.1797 16.2669327,9.2187 16.1465059,9.2437 Z M7.63293438,9.2208 C7.50648626,9.2208 7.36297767,9.2468 7.26864336,9.3408 C7.00370443,9.6048 7.16126281,10.3518 7.76841451,10.9568 C8.37656978,11.5628 9.12723007,11.7188 9.39016188,11.4548 C9.65510081,11.1908 9.49653888,10.4438 8.88938717,9.8388 C8.5792882,9.5298 8.20094738,9.3128 7.85371682,9.2438 C7.80353899,9.2328 7.72225091,9.2208 7.63293438,9.2208 Z"></path>
    </g>
</svg>