<svg xmlns="http://www.w3.org/2000/svg" width="26" height="26" fill="#fff">
  <path d="M12.656.063c-1.094.023-2.02.195-2.844.343-.8.2-1.519.383-2.218.781-.399.301-.782.618-1.282 1.22-.5.5-.917.991-1.218 1.093-.899.602-1.489 1.406-1.688 2.406-.398 1.602-.32 3.688.281 6.188.102.3.325.695.626 1.094.398.5.582.8.78 1-.1 0-.081.124-.28.124l-.313.094c-.3.102-.406.293-.406.594l.093.406.125.281-.218.126V16c.101.5.199.793.5 1.094.101.3.304.5.406.5h.406c.102-.102.282-.188.282-.188.199-.199.425-.195.625-.093l.28.093.407.282c.2 0 .3-.086.5-.188l.188-.188-.282-.125h-.312c-.301 0-.407-.085-.407-.187l.625-.5.594-.5c.399-.2.907-.406 1.407-.406.3.101.374.207.374.406-.199.102-.289.293-.187.594l.094.406c.101.102.094.21.094.313-.301-.102-.29.085-.188.687.102.3.207.695.406 1.094 0 1.101.082 3.199.281 6l.22.218.28.188c.301.2.524.2.626 0 .101-.2.093-1.395.093-3.594s-.094-3.3-.094-3.5l-.218-.218c.199-.102.394-.083.594-.282-.102 1 .113 3.707.312 7.907 0 .101.105.093.406.093.301 0 .406-.008.406.094.2-.102.274-1.293.376-3.594v-2.718c0-.801.007-1.387-.094-1.688h.406c-.102 1.3-.094 2.914-.094 4.813-.101 2.101-.008 3.195.094 3.093h.5c.3.102.398-1.011.5-3.312.102-.899.094-1.782.094-2.782 0-.898.008-1.625-.094-2.125l.5-.093c.398.199.594.406.594.406v.094l-.406.093-.188.125c0 .102.008.481-.094 1.282l-.094 2.718c-.101 2.5-.007 3.696.094 3.594L16 25.688c.102-.102.21-.887.313-2.688.101-1.5.093-2.805.093-3.906.301-.301.489-.793.688-1.594l.093-.813c0-.199.008-.375-.093-.375L17 16.188l.094-.187.593-.188.625-.218c.5-.102.887.105 1.188.406.102.2.195.387.094.688l-.094.218c0 .102.008.094-.094.094-.101.3-.02.5.282.5.3.102.511.105.812-.094.102-.199.414-.394.813-.593.3-.2.492-.52.593-.72l.094-.687c0-.3-.113-.398-.313-.5-.101 0-.093-.094-.093-.094v-.218c.101-.2.195-.395.093-.594l.407-1.906c.3-.899.398-1.586.5-2.188.398-1.8.32-3.195-.282-4.094-.199-.5-.601-1.117-1-1.718A7.694 7.694 0 0 0 19.5 2.312C17.8.915 15.914.196 13.812.095c-.398-.024-.792-.04-1.156-.032zm-7.875 8.75c.04-.047.25.039.625.187.602.2 1.094.512 1.594.813.3.101 1.2.601 2.5 1.5.3.199.813.394 1.313.593l1.374.594c.102.102.106.086-.093.188-.102.101-.387.21-.688.312l-.812.313H10c-.102.101-.313.101-.813 0l-1.28-.22c-1.302-.198-2-.398-2-.5-.302-.1-.52-.292-.72-.593-.199-.3-.289-.488-.187-.688-.3-.398-.406-.8-.406-1.5l.093-.718.125-.188c-.023-.05-.042-.078-.03-.094zm16.5.062c.07-.008.125.05.125.125.102 0 .094.086.094.188v.624h.094c-.102.602-.207 1.102-.407 1.5-.101.399-.175.68-.375.782-.101.199-.3.398-.5.5-.101.199-.8.398-2 .5l-1.406.219c-.398.101-.71.101-.812 0-.102.101-.293-.024-.594-.126L14.594 13c-.801-.2-1.082-.398-.781-.5l1.5-.5c.601-.2.98-.488 1.28-.688l1.313-.812c.602-.398.989-.586 1.188-.688.398-.199 1.02-.425 1.718-.624 0-.2.176-.282.375-.282.024-.023.07-.027.094-.031zM12.688 13v1.813h.218l-.594.874-.124.626-.094.093-.281-.218-.22-.375-.187-.407v-.312l.094-.188.188-.219.124-.28.282-.72v-.093l.094-.094.124-.094.188-.094.094-.218zm.5 0l.124.188.188.124.188.188v.094l.312.812.406.406.094.188a.309.309 0 0 1 0 .406l-.188.406-.218.376-.188.218-.094.094-.124-.906-.594-.906v-1.376z"/>
</svg>
